<svg width="50" height="50" viewBox="0 0 50 50" fill="none" xmlns="http://www.w3.org/2000/svg">
<path fill-rule="evenodd" clip-rule="evenodd" d="M10.1562 7.82227C9.2125 7.82227 8.2578 8.1082 7.5078 8.73164C6.7578 9.35664 6.25 10.3441 6.25 11.5285V16.2316C6.25 16.4388 6.33227 16.6376 6.47879 16.7841C6.6253 16.9306 6.82405 17.0129 7.03125 17.0129C7.23845 17.0129 7.4372 16.9306 7.58371 16.7841C7.73023 16.6376 7.8125 16.4388 7.8125 16.2316V11.5285C7.8125 10.7629 8.08595 10.2848 8.50782 9.93477C8.9297 9.5832 9.5375 9.38477 10.1562 9.38477C10.775 9.38477 11.3828 9.5832 11.8047 9.93477C12.2266 10.2848 12.5 10.7629 12.5 11.5285V20.8754C12.5 21.9754 12.0359 22.1816 11.7188 22.1816C11.4016 22.1816 10.9375 21.9754 10.9375 20.8754V13.2207C10.9375 13.0135 10.8552 12.8148 10.7087 12.6683C10.5622 12.5218 10.3635 12.4395 10.1562 12.4395C9.94905 12.4395 9.7503 12.5218 9.60379 12.6683C9.45727 12.8148 9.375 13.0135 9.375 13.2207V20.8754C9.375 22.5598 10.4734 23.7441 11.7188 23.7441C12.9641 23.7441 14.0625 22.5598 14.0625 20.8754V11.527C14.0625 10.3441 13.5547 9.35508 12.8047 8.73164C12.0547 8.1082 11.1 7.82227 10.1562 7.82227Z" fill="#555658"/>
<path d="M3.90625 15.6309C3.69905 15.6309 3.5003 15.7132 3.35379 15.8597C3.20727 16.0062 3.125 16.2049 3.125 16.4121V39.8496C3.125 40.0568 3.20727 40.2555 3.35379 40.402C3.5003 40.5485 3.69905 40.6309 3.90625 40.6309H27.3438C27.551 40.6309 27.7497 40.5485 27.8962 40.402C28.0427 40.2555 28.125 40.0568 28.125 39.8496V16.4121C28.125 16.2049 28.0427 16.0062 27.8962 15.8597C27.7497 15.7132 27.551 15.6309 27.3438 15.6309H13.2188V17.1934H26.5625V39.0684H4.6875V17.1934H10.8063V15.6309H3.90625Z" fill="#555658"/>
<path d="M16.4062 4.69336C16.199 4.69336 16.0003 4.77567 15.8538 4.92218C15.7073 5.06869 15.625 5.26741 15.625 5.47461V16.2715C15.625 16.4787 15.7073 16.6774 15.8538 16.8239C16.0003 16.9704 16.199 17.0527 16.4062 17.0527C16.6135 17.0527 16.8122 16.9704 16.9587 16.8239C17.1052 16.6774 17.1875 16.4787 17.1875 16.2715V6.25586H36.7188C36.926 6.25586 37.1247 6.17355 37.2712 6.02704C37.4177 5.88052 37.5 5.68181 37.5 5.47461C37.5 5.26741 37.4177 5.06869 37.2712 4.92218C37.1247 4.77567 36.926 4.69336 36.7188 4.69336H16.4062ZM46.0813 14.109C45.8746 14.1123 45.6776 14.1973 45.5336 14.3455C45.3895 14.4937 45.31 14.6929 45.3125 14.8996V43.7387H17.1875V40.1449C17.1875 39.9377 17.1052 39.739 16.9587 39.5925C16.8122 39.446 16.6135 39.3637 16.4062 39.3637C16.199 39.3637 16.0003 39.446 15.8538 39.5925C15.7073 39.739 15.625 39.9377 15.625 40.1449V44.5199C15.625 44.7271 15.7073 44.9258 15.8538 45.0723C16.0003 45.2189 16.199 45.3012 16.4062 45.3012H46.0938C46.301 45.3012 46.4997 45.2189 46.6462 45.0723C46.7927 44.9258 46.875 44.7271 46.875 44.5199V14.9012C46.8763 14.7967 46.8566 14.6931 46.8171 14.5964C46.7776 14.4997 46.7192 14.4119 46.6452 14.3382C46.5712 14.2645 46.4831 14.2063 46.3862 14.1672C46.2894 14.1282 46.1857 14.1073 46.0813 14.109Z" fill="#555658"/>
<path fill-rule="evenodd" clip-rule="evenodd" d="M20.3125 10.9434V12.5059H34.375V10.9434H20.3125ZM31.25 15.6309V17.1934H42.1875V15.6309H31.25ZM31.25 20.3184V21.8809H42.1875V20.3184H31.25Z" fill="#555658"/>
<path fill-rule="evenodd" clip-rule="evenodd" d="M39.8313 4.69346C39.6262 4.69674 39.4307 4.78049 39.2869 4.92665C39.1431 5.07281 39.0625 5.26965 39.0625 5.47471V11.7247C39.0625 11.9319 39.1448 12.1306 39.2913 12.2771C39.4378 12.4236 39.6365 12.506 39.8438 12.506H46.0938C46.2481 12.5059 46.3991 12.4601 46.5275 12.3744C46.6559 12.2886 46.756 12.1668 46.8152 12.0242C46.8744 11.8816 46.89 11.7246 46.86 11.5731C46.8301 11.4217 46.7559 11.2825 46.6469 11.1731L40.3969 4.92314C40.3228 4.84885 40.2346 4.79023 40.1374 4.75077C40.0402 4.7113 39.9361 4.69181 39.8313 4.69346ZM40.625 7.36064L44.2079 10.9435H40.625V7.36064Z" fill="#555658"/>
<path fill-rule="evenodd" clip-rule="evenodd" d="M10.1562 7.82227C9.2125 7.82227 8.2578 8.1082 7.5078 8.73164C6.7578 9.35664 6.25 10.3441 6.25 11.5285C6.25 11.7357 6.33227 11.9344 6.47879 12.0809C6.6253 12.2275 6.82405 12.3098 7.03125 12.3098C7.23845 12.3098 7.4372 12.2275 7.58371 12.0809C7.73023 11.9344 7.8125 11.7357 7.8125 11.5285C7.8125 10.7629 8.08595 10.2848 8.50782 9.93477C8.9297 9.5832 9.5375 9.38477 10.1562 9.38477C10.775 9.38477 11.3828 9.5832 11.8047 9.93477C12.2266 10.2848 12.5 10.7629 12.5 11.5285V20.8754C12.5 21.9754 12.0359 22.1816 11.7188 22.1816C11.4016 22.1816 10.9375 21.9754 10.9375 20.8754V13.2207C10.9375 13.0135 10.8552 12.8148 10.7087 12.6683C10.5622 12.5218 10.3635 12.4395 10.1562 12.4395C9.94905 12.4395 9.7503 12.5218 9.60379 12.6683C9.45727 12.8148 9.375 13.0135 9.375 13.2207V20.8754C9.375 22.5598 10.4734 23.7441 11.7188 23.7441C12.9641 23.7441 14.0625 22.5598 14.0625 20.8754V11.527C14.0625 10.3441 13.5547 9.35508 12.8047 8.73164C12.0547 8.1082 11.1 7.82227 10.1562 7.82227Z" fill="#555658"/>
<line x1="10.6524" y1="25" x2="20.9238" y2="35.2714" stroke="#C94C4C" stroke-linecap="round"/>
<line x1="10.5" y1="35.2714" x2="20.7714" y2="25" stroke="#C94C4C" stroke-linecap="round"/>
</svg>
