<svg width="25" height="25" viewBox="0 0 25 25" fill="none" xmlns="http://www.w3.org/2000/svg">
<path d="M19.7781 12.5004C19.7781 11.3144 19.4264 10.155 18.7675 9.16892C18.1086 8.1828 17.1721 7.41422 16.0764 6.96036C14.9807 6.5065 13.775 6.38775 12.6118 6.61913C11.4486 6.85051 10.3801 7.42163 9.54147 8.26026C8.70285 9.09888 8.13174 10.1674 7.90037 11.3306C7.669 12.4938 7.78776 13.6995 8.24163 14.7952C8.6955 15.8909 9.46409 16.8274 10.4502 17.4863C11.4363 18.1452 12.5957 18.4969 13.7817 18.4969C15.3715 18.4951 16.8957 17.8627 18.0198 16.7385C19.144 15.6144 19.7763 14.0902 19.7781 12.5004ZM8.56646 12.5004C8.56646 11.4689 8.87233 10.4606 9.44538 9.60296C10.0184 8.74532 10.8329 8.07687 11.7859 7.68215C12.7389 7.28742 13.7875 7.18414 14.7991 7.38537C15.8108 7.5866 16.7401 8.0833 17.4694 8.81267C18.1988 9.54203 18.6955 10.4713 18.8967 11.483C19.0979 12.4946 18.9947 13.5432 18.5999 14.4962C18.2052 15.4491 17.5368 16.2636 16.6791 16.8367C15.8215 17.4098 14.8132 17.7156 13.7817 17.7156C12.399 17.7141 11.0734 17.1641 10.0957 16.1864C9.11798 15.2087 8.56802 13.8831 8.56646 12.5004Z" fill="black"/>
<path d="M16.3541 12.9885C16.3541 12.8849 16.3129 12.7855 16.2397 12.7123C16.1664 12.639 16.0671 12.5979 15.9635 12.5979H13.8672V9.69531C13.8672 9.59171 13.826 9.49236 13.7528 9.4191C13.6795 9.34584 13.5802 9.30469 13.4766 9.30469C13.373 9.30469 13.2736 9.34584 13.2003 9.4191C13.1271 9.49236 13.0859 9.59171 13.0859 9.69531V12.9678C13.0859 13.1838 13.2544 13.3791 13.4702 13.3791H15.9635C16.0671 13.3791 16.1664 13.3379 16.2397 13.2647C16.3129 13.1914 16.3541 13.0921 16.3541 12.9885Z" fill="black"/>
<path d="M13.7822 1.9727C11.3036 1.97376 8.90472 2.84886 7.00762 4.44403C5.11053 6.03921 3.83672 8.25228 3.41027 10.6939H1.08117C1.01089 10.6934 0.941785 10.712 0.881247 10.7477C0.820709 10.7834 0.771011 10.8349 0.737464 10.8966C0.703917 10.9584 0.687782 11.0281 0.690784 11.0983C0.693786 11.1686 0.715811 11.2366 0.754507 11.2953L3.59997 15.6333C3.63554 15.6875 3.68404 15.7319 3.74108 15.7627C3.79812 15.7934 3.86192 15.8095 3.92672 15.8095C3.99152 15.8094 4.0553 15.7933 4.1123 15.7624C4.1693 15.7316 4.21773 15.6871 4.25324 15.6329L7.09865 11.2942C7.13724 11.2356 7.15919 11.1676 7.16214 11.0975C7.1651 11.0274 7.14895 10.9578 7.11543 10.8962C7.0819 10.8345 7.03226 10.7831 6.9718 10.7475C6.91135 10.7119 6.84235 10.6934 6.77218 10.6939H4.20382C4.62592 8.46226 5.81381 6.44794 7.56249 4.99858C9.31118 3.54922 11.511 2.75576 13.7822 2.75512C19.1565 2.75512 23.5288 7.12685 23.5288 12.5012C23.5288 17.8756 19.1565 22.2475 13.7822 22.2475C13.6786 22.2475 13.5792 22.2887 13.506 22.362C13.4327 22.4352 13.3916 22.5346 13.3916 22.6382C13.3916 22.7418 13.4327 22.8411 13.506 22.9144C13.5792 22.9876 13.6786 23.0288 13.7822 23.0288C15.8645 23.0288 17.9 22.4114 19.6314 21.2546C21.3627 20.0977 22.7121 18.4534 23.509 16.5297C24.3058 14.6059 24.5143 12.489 24.108 10.4468C23.7017 8.4045 22.699 6.52858 21.2265 5.05624C20.2512 4.07557 19.091 3.29809 17.8132 2.7688C16.5354 2.23951 15.1653 1.96892 13.7822 1.9727ZM3.92672 14.7109L1.8046 11.4752H6.04884L3.92672 14.7109Z" fill="black"/>
</svg>
